HIERARCHY
ROOT Hips
{
  OFFSET 346.547 88.4868 223.89
  CHANNELS 6 Xposition Yposition Zposition Zrotation Xrotation Yrotation
  JOINT RightUpLeg
  {
    OFFSET -9.26971 -1.52262 -0.00348434
    CHANNELS 6 Xposition Yposition Zposition Zrotation Xrotation Yrotation
    JOINT RightLeg
    {
      OFFSET -0.00425862 -41.8682 0.0184652
      CHANNELS 6 Xposition Yposition Zposition Zrotation Xrotation Yrotation
      JOINT RightFoot
      {
        OFFSET -0.62369 -42.3057 -0.171503
        CHANNELS 6 Xposition Yposition Zposition Zrotation Xrotation Yrotation
        End Site
        {
          OFFSET 0 -7.69 17.5
        }
      }
    }
  }
  JOINT LeftUpLeg
  {
    OFFSET 9.29684 -1.68211 -0.0433351
    CHANNELS 6 Xposition Yposition Zposition Zrotation Xrotation Yrotation
    JOINT LeftLeg
    {
      OFFSET 0.0692631 -41.8566 -0.0943626
      CHANNELS 6 Xposition Yposition Zposition Zrotation Xrotation Yrotation
      JOINT LeftFoot
      {
        OFFSET 0.517419 -41.5265 0.441716
        CHANNELS 6 Xposition Yposition Zposition Zrotation Xrotation Yrotation
        End Site
        {
          OFFSET 0 -7.69 17.5
        }
      }
    }
  }
  JOINT Spine
  {
    OFFSET 0.0697006 14.3001 0.0552949
    CHANNELS 6 Xposition Yposition Zposition Zrotation Xrotation Yrotation
    JOINT Spine1
    {
      OFFSET 0.0442547 9.7157 0.0145407
      CHANNELS 6 Xposition Yposition Zposition Zrotation Xrotation Yrotation
      JOINT Spine2
      {
        OFFSET 0.0595675 10.1146 -0.00203466
        CHANNELS 6 Xposition Yposition Zposition Zrotation Xrotation Yrotation
        JOINT Spine3
        {
          OFFSET 0.0514263 9.71766 0.000100679
          CHANNELS 6 Xposition Yposition Zposition Zrotation Xrotation Yrotation
          JOINT Neck
          {
            OFFSET 0.115655 10.3797 0.0429429
            CHANNELS 6 Xposition Yposition Zposition Zrotation Xrotation Yrotation
            JOINT Head
            {
              OFFSET 0.0937003 9.46893 0.0188238
              CHANNELS 6 Xposition Yposition Zposition Zrotation Xrotation Yrotation
              End Site
              {
                OFFSET 0 15.95 0
              }
            }
          }
          JOINT RightShoulder
          {
            OFFSET -3.17023 6.91072 -0.0050072
            CHANNELS 6 Xposition Yposition Zposition Zrotation Xrotation Yrotation
            JOINT RightArm
            {
              OFFSET -12.7575 0.00694711 0.0313031
              CHANNELS 6 Xposition Yposition Zposition Zrotation Xrotation Yrotation
              JOINT RightForeArm
              {
                OFFSET -26.5152 -0.0619338 -0.0331286
                CHANNELS 6 Xposition Yposition Zposition Zrotation Xrotation Yrotation
                JOINT RightHand
                {
                  OFFSET -25.9898 0.0398378 -0.0269922
                  CHANNELS 6 Xposition Yposition Zposition Zrotation Xrotation Yrotation
                  JOINT RightHandThumb1
                  {
                    OFFSET -2.48905 0.190105 3.12053
                    CHANNELS 6 Xposition Yposition Zposition Zrotation Xrotation Yrotation
                    JOINT RightHandThumb2
                    {
                      OFFSET -3.68274 0 0
                      CHANNELS 6 Xposition Yposition Zposition Zrotation Xrotation Yrotation
                      JOINT RightHandThumb3
                      {
                        OFFSET -2.55832 0 0
                        CHANNELS 6 Xposition Yposition Zposition Zrotation Xrotation Yrotation
                        End Site
                        {
                          OFFSET -2.194 0 0
                        }
                      }
                    }
                  }
                  JOINT RightInHandIndex
                  {
                    OFFSET -3.22368 0.508421 1.97842
                    CHANNELS 6 Xposition Yposition Zposition Zrotation Xrotation Yrotation
                    JOINT RightHandIndex1
                    {
                      OFFSET -5.21684 -0.091368 0.999158
                      CHANNELS 6 Xposition Yposition Zposition Zrotation Xrotation Yrotation
                      JOINT RightHandIndex2
                      {
                        OFFSET -3.61937 0 0
                        CHANNELS 6 Xposition Yposition Zposition Zrotation Xrotation Yrotation
                        JOINT RightHandIndex3
                        {
                          OFFSET -2.0521 0 0
                          CHANNELS 6 Xposition Yposition Zposition Zrotation Xrotation Yrotation
                          End Site
                          {
                            OFFSET -1.805 0 0
                          }
                        }
                      }
                    }
                  }
                  JOINT RightInHandMiddle
                  {
                    OFFSET -3.38211 0.517263 0.756737
                    CHANNELS 6 Xposition Yposition Zposition Zrotation Xrotation Yrotation
                    JOINT RightHandMiddle1
                    {
                      OFFSET -5.17411 -0.084 0.313895
                      CHANNELS 6 Xposition Yposition Zposition Zrotation Xrotation Yrotation
                      JOINT RightHandMiddle2
                      {
                        OFFSET -3.94947 0 0
                        CHANNELS 6 Xposition Yposition Zposition Zrotation Xrotation Yrotation
                        JOINT RightHandMiddle3
                        {
                          OFFSET -2.47579 0 0
                          CHANNELS 6 Xposition Yposition Zposition Zrotation Xrotation Yrotation
                          End Site
                          {
                            OFFSET -1.975 0 0
                          }
                        }
                      }
                    }
                  }
                  JOINT RightInHandRing
                  {
                    OFFSET -3.36516 0.537895 -0.128947
                    CHANNELS 6 Xposition Yposition Zposition Zrotation Xrotation Yrotation
                    JOINT RightHandRing1
                    {
                      OFFSET -4.63474 -0.022105 -0.478947
                      CHANNELS 6 Xposition Yposition Zposition Zrotation Xrotation Yrotation
                      JOINT RightHandRing2
                      {
                        OFFSET -3.44238 0 0
                        CHANNELS 6 Xposition Yposition Zposition Zrotation Xrotation Yrotation
                        JOINT RightHandRing3
                        {
                          OFFSET -2.3881 0 0
                          CHANNELS 6 Xposition Yposition Zposition Zrotation Xrotation Yrotation
                          End Site
                          {
                            OFFSET -1.857 0 0
                          }
                        }
                      }
                    }
                  }
                  JOINT RightInHandPinky
                  {
                    OFFSET -3.16105 0.469368 -1.20179
                    CHANNELS 6 Xposition Yposition Zposition Zrotation Xrotation Yrotation
                    JOINT RightHandPinky1
                    {
                      OFFSET -4.14105 -0.022105 -1.09053
                      CHANNELS 6 Xposition Yposition Zposition Zrotation Xrotation Yrotation
                      JOINT RightHandPinky2
                      {
                        OFFSET -2.75653 0 0
                        CHANNELS 6 Xposition Yposition Zposition Zrotation Xrotation Yrotation
                        JOINT RightHandPinky3
                        {
                          OFFSET -1.74189 0 0
                          CHANNELS 6 Xposition Yposition Zposition Zrotation Xrotation Yrotation
                          End Site
                          {
                            OFFSET -1.645 0 0
                          }
                        }
                      }
                    }
                  }
                }
              }
            }
          }
          JOINT LeftShoulder
          {
            OFFSET 3.25182 6.92033 -0.0304417
            CHANNELS 6 Xposition Yposition Zposition Zrotation Xrotation Yrotation
            JOINT LeftArm
            {
              OFFSET 12.8499 -0.047638 -0.0610398
              CHANNELS 6 Xposition Yposition Zposition Zrotation Xrotation Yrotation
              JOINT LeftForeArm
              {
                OFFSET 26.496 -0.0565102 -0.0668766
                CHANNELS 6 Xposition Yposition Zposition Zrotation Xrotation Yrotation
                JOINT LeftHand
                {
                  OFFSET 25.9957 -0.039282 -0.027851
                  CHANNELS 6 Xposition Yposition Zposition Zrotation Xrotation Yrotation
                  JOINT LeftHandThumb1
                  {
                    OFFSET 2.48905 0.190105 3.12053
                    CHANNELS 6 Xposition Yposition Zposition Zrotation Xrotation Yrotation
                    JOINT LeftHandThumb2
                    {
                      OFFSET 3.68274 0 0
                      CHANNELS 6 Xposition Yposition Zposition Zrotation Xrotation Yrotation
                      JOINT LeftHandThumb3
                      {
                        OFFSET 2.55832 0 0
                        CHANNELS 6 Xposition Yposition Zposition Zrotation Xrotation Yrotation
                        End Site
                        {
                          OFFSET 2.194 0 0
                        }
                      }
                    }
                  }
                  JOINT LeftInHandIndex
                  {
                    OFFSET 3.22368 0.508421 1.97842
                    CHANNELS 6 Xposition Yposition Zposition Zrotation Xrotation Yrotation
                    JOINT LeftHandIndex1
                    {
                      OFFSET 5.21684 -0.091368 0.999158
                      CHANNELS 6 Xposition Yposition Zposition Zrotation Xrotation Yrotation
                      JOINT LeftHandIndex2
                      {
                        OFFSET 3.61937 0 0
                        CHANNELS 6 Xposition Yposition Zposition Zrotation Xrotation Yrotation
                        JOINT LeftHandIndex3
                        {
                          OFFSET 2.0521 0 0
                          CHANNELS 6 Xposition Yposition Zposition Zrotation Xrotation Yrotation
                          End Site
                          {
                            OFFSET 1.805 0 0
                          }
                        }
                      }
                    }
                  }
                  JOINT LeftInHandMiddle
                  {
                    OFFSET 3.38211 0.517263 0.756737
                    CHANNELS 6 Xposition Yposition Zposition Zrotation Xrotation Yrotation
                    JOINT LeftHandMiddle1
                    {
                      OFFSET 5.17411 -0.084 0.313895
                      CHANNELS 6 Xposition Yposition Zposition Zrotation Xrotation Yrotation
                      JOINT LeftHandMiddle2
                      {
                        OFFSET 3.94947 0 0
                        CHANNELS 6 Xposition Yposition Zposition Zrotation Xrotation Yrotation
                        JOINT LeftHandMiddle3
                        {
                          OFFSET 2.47579 0 0
                          CHANNELS 6 Xposition Yposition Zposition Zrotation Xrotation Yrotation
                          End Site
                          {
                            OFFSET 1.975 0 0
                          }
                        }
                      }
                    }
                  }
                  JOINT LeftInHandRing
                  {
                    OFFSET 3.36516 0.537895 -0.128947
                    CHANNELS 6 Xposition Yposition Zposition Zrotation Xrotation Yrotation
                    JOINT LeftHandRing1
                    {
                      OFFSET 4.63474 -0.022105 -0.478947
                      CHANNELS 6 Xposition Yposition Zposition Zrotation Xrotation Yrotation
                      JOINT LeftHandRing2
                      {
                        OFFSET 3.44238 0 0
                        CHANNELS 6 Xposition Yposition Zposition Zrotation Xrotation Yrotation
                        JOINT LeftHandRing3
                        {
                          OFFSET 2.3881 0 0
                          CHANNELS 6 Xposition Yposition Zposition Zrotation Xrotation Yrotation
                          End Site
                          {
                            OFFSET 1.857 0 0
                          }
                        }
                      }
                    }
                  }
                  JOINT LeftInHandPinky
                  {
                    OFFSET 3.16105 0.469368 -1.20179
                    CHANNELS 6 Xposition Yposition Zposition Zrotation Xrotation Yrotation
                    JOINT LeftHandPinky1
                    {
                      OFFSET 4.14105 -0.022105 -1.09053
                      CHANNELS 6 Xposition Yposition Zposition Zrotation Xrotation Yrotation
                      JOINT LeftHandPinky2
                      {
                        OFFSET 2.75653 0 0
                        CHANNELS 6 Xposition Yposition Zposition Zrotation Xrotation Yrotation
                        JOINT LeftHandPinky3
                        {
                          OFFSET 1.74189 0 0
                          CHANNELS 6 Xposition Yposition Zposition Zrotation Xrotation Yrotation
                          End Site
                          {
                            OFFSET 1.645 0 0
                          }
                        }
                      }
                    }
                  }
                }
              }
            }
          }
        }
      }
    }
  }
}
MOTION
Frames:	3
Frame Time:	0.00833333
337.565 87.5182 223.901 20.8314 4.23892 -131.458 -9.32875 -1.60472 -0.0241096 34.5598 -35.4525 31.0638 -0.144714 -41.8699 0.143706 -7.05545 18.3558 0.927032 1.6495 -42.5571 0.372096 7.26448 8.51779 47.9991 9.26133 -1.54214 0.054545 33.1306 -11.458 17.3405 0.00690896 -41.9174 0.00766863 -23.1469 42.34 25.7417 0.08317 -41.7053 -0.950056 5.05092 -23.1142 16.747 -0.0148274 14.3045 0.00852614 -6.39026 -2.51449 -14.615 0.0150318 9.7164 0.0125773 -1.54253 -0.970392 -3.59844 -0.0279695 10.1234 -0.00625552 -2.56946 -1.71343 -5.82289 0.00722489 9.71668 0.000952602 -0.501935 -0.180591 2.79228 -0.0331881 10.3816 0.126642 -0.437409 -3.55114 42.0187 -0.129004 9.45263 0.0439764 -8.28789 9.09666 26.8767 -3.21042 6.91801 -0.017037 4.85471 4.45898 1.75857 -12.7748 -0.0180248 0.0225254 33.5301 -65.5807 -3.22904 -26.453 -0.0718028 -0.0274229 23.6127 0.928413 125.388 -26.0021 -0.0470663 0.0435198 12.5944 -22.1885 10.6052 -2.48905 0.190105 3.12053 28.184 10.7294 19.1592 -3.68274 0 2.84217e-14 -2.2651e-15 3.18055e-15 -10 -2.55832 0 2.84217e-14 -5.99827e-16 3.18055e-15 -10 -3.22368 0.508421 1.97842 2.68359e-15 0 1.59028e-15 -5.21684 -0.091368 0.999158 19.9818 0.871897 2.3964 -3.61937 0 0 24 -3.18055e-15 -1.59028e-15 -2.0521 0 2.84217e-14 20 -1.59028e-15 -0 -3.38211 0.517263 0.756737 2.68359e-15 0 1.59028e-15 -5.17411 -0.084 0.313895 20 0 -1.19271e-15 -3.94947 -5.68434e-14 0 24 -3.18055e-15 -3.97569e-16 -2.47579 0 -2.84217e-14 20 -7.95139e-16 -3.97569e-16 -3.36516 0.537895 -0.128947 2.68359e-15 0 1.59028e-15 -4.63474 -0.022105 -0.478947 19.9748 -1.02565 -2.81938 -3.44238 0 0 24 -7.95139e-16 -0 -2.3881 2.84217e-14 2.84217e-14 20 0 7.95139e-16 -3.16105 0.469368 -1.20179 2.68359e-15 0 1.59028e-15 -4.14105 -0.022105 -1.09053 19.7815 -3.00948 -8.30515 -2.75653 -5.68434e-14 0 24 -7.95139e-16 -7.95139e-16 -1.74189 2.84217e-14 2.84217e-14 20 1.98785e-16 -1.59028e-15 3.19087 6.93849 -0.0308089 6.50595 -21.3848 -49.5599 12.7884 0.0152534 -0.0152423 -20.1753 29.4891 -113.522 26.4882 -0.0300133 0.0433749 36.2043 -2.78445 -39.5776 25.9777 -0.0174916 -0.0286353 -34.9278 -12.5012 -17.1864 2.48905 0.190105 3.12053 -28.184 10.7294 -19.1592 3.68274 0 0 -2.42221e-15 0 10 2.55832 -5.68434e-14 0 1.81666e-15 0 10 3.22368 0.508421 1.97842 -4.17448e-15 -7.95139e-16 -0 5.21684 -0.091368 0.999158 -19.9818 0.871897 -2.3964 3.61937 0 -2.84217e-14 -24 -1.59028e-15 2.38542e-15 2.0521 0 0 -20 3.18055e-15 -7.95139e-16 3.38211 0.517263 0.756737 -4.17448e-15 -7.95139e-16 -0 5.17411 -0.084 0.313895 -20 -2.38542e-15 -1.59028e-15 3.94947 0 -2.84217e-14 -24 0 -7.95139e-16 2.47579 5.68434e-14 0 -20 0 2.98177e-16 3.36516 0.537895 -0.128947 -4.17448e-15 -7.95139e-16 -0 4.63474 -0.022105 -0.478947 -19.9748 -1.02565 2.81938 3.44238 2.84217e-14 0 -24 7.95139e-16 -0 2.3881 -5.68434e-14 0 -20 -1.59028e-15 9.93923e-16 3.16105 0.469368 -1.20179 -4.17448e-15 -7.95139e-16 -0 4.14105 -0.022105 -1.09053 -19.7815 -3.00948 8.30515 2.75653 0 2.84217e-14 -24 0 7.95139e-16 1.74189 0 -2.84217e-14 -20 3.97569e-16 3.97569e-16 
337.607 87.527 224.005 21.0063 4.38973 -131.129 -9.30307 -1.60446 -0.0469424 34.4733 -35.75 31.3192 -0.109031 -41.8697 0.143577 -6.79984 18.4768 0.546085 1.6658 -42.5919 0.407385 7.37418 8.42613 47.7165 9.25977 -1.54271 0.0542414 33.2893 -11.7824 17.3126 0.000600745 -41.9179 0.00104405 -23.0267 42.4973 25.5625 0.110536 -41.6508 -0.915753 5.02088 -23.1449 16.6857 -0.016226 14.3047 0.00711438 -6.2659 -2.49611 -14.8207 0.0158849 9.71633 0.0123449 -1.51107 -0.962592 -3.65306 -0.0275888 10.1232 -0.00255219 -2.51751 -1.69915 -5.91056 0.00832082 9.71677 0.00178097 -0.49893 -0.179441 2.79222 -0.0337026 10.3816 0.122104 -0.439547 -3.50323 42.0923 -0.125193 9.45286 0.0442051 -8.25521 9.08121 26.9389 -3.21054 6.91797 -0.0167783 4.8562 4.43348 2.17281 -12.773 -0.019926 0.0202874 34.5759 -65.2602 -2.49644 -26.4529 -0.0708535 -0.0291421 23.716 0.77582 125.274 -26.0019 -0.0508047 0.0420492 12.7643 -22.2074 10.7707 -2.48905 0.190105 3.12053 28.184 10.7294 19.1592 -3.68274 0 0 -3.54385e-15 -6.36111e-15 -10 -2.55832 5.68434e-14 2.84217e-14 -2.0747e-15 -3.18055e-15 -10 -3.22368 0.508421 1.97842 4.96962e-16 0 7.95139e-16 -5.21684 -0.091368 0.999158 19.9818 0.871897 2.3964 -3.61937 0 0 24 0 -5.96354e-16 -2.0521 0 0 20 0 3.97569e-16 -3.38211 0.517263 0.756737 4.96962e-16 0 7.95139e-16 -5.17411 -0.084 0.313895 20 -1.59028e-15 -1.19271e-15 -3.94947 -5.68434e-14 0 24 0 7.45443e-16 -2.47579 2.84217e-14 2.84217e-14 20 -2.38542e-15 -7.95139e-16 -3.36516 0.537895 -0.128947 4.96962e-16 0 7.95139e-16 -4.63474 -0.022105 -0.478947 19.9748 -1.02565 -2.81938 -3.44238 5.68434e-14 2.84217e-14 24 1.59028e-15 -7.95139e-16 -2.3881 2.84217e-14 0 20 -3.97569e-16 7.95139e-16 -3.16105 0.469368 -1.20179 4.96962e-16 0 7.95139e-16 -4.14105 -0.022105 -1.09053 19.7815 -3.00948 -8.30515 -2.75653 5.68434e-14 0 24 -6.95746e-16 -7.95139e-16 -1.74189 0 -2.84217e-14 20 -5.96354e-16 7.95139e-16 3.19298 6.94205 -0.0328764 6.72094 -21.2638 -49.1898 12.7877 0.0209752 -0.0199542 -20.2297 29.5285 -113.487 26.4883 -0.0297658 0.0448952 36.1128 -2.55483 -39.169 25.9777 -0.0177506 -0.0288386 -35.073 -12.5121 -17.0765 2.48905 0.190105 3.12053 -28.184 10.7294 -19.1592 3.68274 0 2.84217e-14 1.61481e-15 0 10 2.55832 -5.68434e-14 -2.84217e-14 3.63332e-15 0 10 3.22368 0.508421 1.97842 -1.2921e-15 0 -0 5.21684 -0.091368 0.999158 -19.9818 0.871897 -2.3964 3.61937 0 0 -24 0 -3.18055e-15 2.0521 0 -2.84217e-14 -20 -1.59028e-15 -1.59028e-15 3.38211 0.517263 0.756737 -1.2921e-15 0 -0 5.17411 -0.084 0.313895 -20 -2.38542e-15 -3.97569e-15 3.94947 0 2.84217e-14 -24 0 -1.98785e-15 2.47579 0 0 -20 0 -1.3418e-15 3.36516 0.537895 -0.128947 -1.2921e-15 0 -0 4.63474 -0.022105 -0.478947 -19.9748 -1.02565 2.81938 3.44238 0 0 -24 1.59028e-15 -3.97569e-16 2.3881 0 0 -20 1.59028e-15 2.98177e-16 3.16105 0.469368 -1.20179 -1.2921e-15 0 -0 4.14105 -0.022105 -1.09053 -19.7815 -3.00948 8.30515 2.75653 -2.84217e-14 -2.84217e-14 -24 0 3.97569e-16 1.74189 0 -2.84217e-14 -20 -4.96962e-16 7.95139e-16 
337.648 87.5336 224.107 21.1788 4.51959 -130.819 -9.29626 -1.60417 -0.0519376 34.4406 -36.0315 31.4122 -0.0874615 -41.8693 0.138614 -6.69566 18.5741 0.38294 1.70888 -42.6249 0.428051 7.50355 8.34335 47.4587 9.25936 -1.5433 0.0547916 33.4398 -12.0953 17.3177 0.0047333 -41.9185 -0.00423779 -22.9227 42.6328 25.3776 0.131099 -41.5883 -0.887581 4.98579 -23.161 16.6331 -0.00603317 14.3049 -0.00262629 -6.14954 -2.48952 -15.0292 0.0168108 9.71627 0.0121264 -1.48133 -0.95789 -3.70798 -0.0271608 10.1229 0.00100081 -2.46842 -1.6899 -5.99835 0.00945958 9.71686 0.00263354 -0.497343 -0.179189 2.79219 -0.0347607 10.3816 0.114483 -0.438071 -3.47564 42.1972 -0.118751 9.45306 0.042663 -8.23711 9.06417 27.0098 -3.21066 6.91798 -0.0130677 4.8463 4.43535 2.62947 -12.7706 -0.0224163 0.0248806 35.6903 -64.887 -1.71282 -26.4528 -0.0698539 -0.0320383 23.8092 0.630519 125.137 -26.0017 -0.0532281 0.0526845 12.9532 -22.1648 10.9234 -2.48905 0.190105 3.12053 28.184 10.7294 19.1592 -3.68274 5.68434e-14 0 -4.35126e-15 -6.36111e-15 -10 -2.55832 5.68434e-14 2.84217e-14 -2.83164e-15 -3.18055e-15 -10 -3.22368 0.508421 1.97842 -5.91384e-15 0 -0 -5.21684 -0.091368 0.999158 19.9818 0.871897 2.3964 -3.61937 5.68434e-14 0 24 1.59028e-15 3.97569e-16 -2.0521 2.84217e-14 0 20 -1.59028e-15 -2.98177e-16 -3.38211 0.517263 0.756737 -5.91384e-15 0 -0 -5.17411 -0.084 0.313895 20 7.95139e-16 7.95139e-16 -3.94947 -5.68434e-14 0 24 -7.95139e-16 4.96962e-16 -2.47579 0 0 20 0 -7.95139e-16 -3.36516 0.537895 -0.128947 -5.91384e-15 0 -0 -4.63474 -0.022105 -0.478947 19.9748 -1.02565 -2.81938 -3.44238 5.68434e-14 0 24 -7.95139e-16 1.98785e-16 -2.3881 -2.84217e-14 -2.84217e-14 20 -3.97569e-16 3.97569e-16 -3.16105 0.469368 -1.20179 -5.91384e-15 0 -0 -4.14105 -0.022105 -1.09053 19.7815 -3.00948 -8.30515 -2.75653 0 -2.84217e-14 24 -2.98177e-16 1.59028e-15 -1.74189 0 0 20 0 7.95139e-16 3.19412 6.94311 -0.0353444 6.9545 -21.1094 -48.7598 12.787 0.0263694 -0.0248553 -20.299 29.5866 -113.408 26.4796 -0.0315724 0.0544423 36.0408 -2.28412 -38.6753 25.9764 -0.0100296 -0.0080783 -35.2557 -12.5391 -16.9747 2.48905 0.190105 3.12053 -28.184 10.7294 -19.1592 3.68274 -5.68434e-14 0 -3.51003e-15 1.59028e-15 10 2.55832 0 0 -4.71022e-15 9.54166e-15 10 3.22368 0.508421 1.97842 -1.68967e-15 7.95139e-16 7.95139e-16 5.21684 -0.091368 0.999158 -19.9818 0.871897 -2.3964 3.61937 2.84217e-14 0 -24 1.59028e-15 -7.95139e-16 2.0521 5.68434e-14 2.84217e-14 -20 0 -1.98785e-15 3.38211 0.517263 0.756737 -1.68967e-15 7.95139e-16 7.95139e-16 5.17411 -0.084 0.313895 -20 0 7.95139e-16 3.94947 0 0 -24 7.95139e-16 -3.97569e-16 2.47579 5.68434e-14 0 -20 -1.59028e-15 1.3418e-15 3.36516 0.537895 -0.128947 -1.68967e-15 7.95139e-16 7.95139e-16 4.63474 -0.022105 -0.478947 -19.9748 -1.02565 2.81938 3.44238 2.84217e-14 0 -24 7.95139e-16 2.98177e-16 2.3881 -5.68434e-14 0 -20 7.95139e-16 5.96354e-16 3.16105 0.469368 -1.20179 -1.68967e-15 7.95139e-16 7.95139e-16 4.14105 -0.022105 -1.09053 -19.7815 -3.00948 8.30515 2.75653 2.84217e-14 0 -24 4.96962e-16 3.97569e-16 1.74189 -5.68434e-14 0 -20 2.98177e-16 -3.97569e-16 
